<svg height="512pt" viewBox="0 -36 512 511" width="512pt" xmlns="http://www.w3.org/2000/svg"><path d="m493.304688.5h-474.609376c-10.308593 0-18.695312 8.386719-18.695312 18.695312v401.726563c0 10.308594 8.386719 18.695313 18.695312 18.695313h474.609376c10.308593 0 18.695312-8.386719 18.695312-18.695313v-401.726563c0-10.308593-8.386719-18.695312-18.695312-18.695312zm-11.304688 30v22.402344l-175.375.425781c-4.6875.011719-9.15625 1.777344-12.585938 4.976563l-24.667968 23.027343h-239.371094v-50.832031zm-452 379.117188v-298.289063h243.902344c4.699218 0 9.179687-1.765625 12.625-4.976563l24.683594-23.035156 170.792968-.417968v326.71875zm0 0"/><path d="m97.1875 59.207031c.089844.476563.210938.957031.359375 1.429688.140625.457031.3125.929687.492187 1.378906.191407.449219.398438.898437.628907 1.328125.230469.433594.480469.851562.75 1.261719.269531.410156.570312.8125.878906 1.179687.3125.382813.640625.75.992187 1.101563.339844.339843.710938.679687 1.089844.988281.378906.3125.78125.601562 1.1875.871094.402344.269531.832032.53125 1.261719.761718.429687.226563.878906.4375 1.332031.617188.449219.191406.90625.359375 1.378906.5.46875.140625.949219.261719 1.417969.359375.480469.101563.972657.171875 1.460938.222656.488281.046875.988281.070313 1.46875.070313.492187 0 .992187-.023438 1.480469-.070313.480468-.050781.96875-.121093 1.460937-.222656.46875-.097656.949219-.21875 1.417969-.359375.472656-.140625.933594-.308594 1.382812-.5.449219-.179688.898438-.390625 1.328125-.617188.429688-.230468.851563-.492187 1.261719-.761718.410156-.269532.808594-.558594 1.179688-.871094.390624-.308594.75-.648438 1.097656-.988281.351562-.351563.679687-.71875.992187-1.101563.308594-.367187.597657-.769531.878907-1.179687.269531-.410157.519531-.828125.75-1.261719.230468-.429688.441406-.878906.621093-1.328125.1875-.449219.359375-.921875.5-1.378906.140625-.472657.257813-.949219.359375-1.429688.101563-.480469.167969-.972656.21875-1.453125.050782-.488281.070313-.988281.070313-1.476562 0-.492188-.019531-.980469-.070313-1.472656-.050781-.488282-.117187-.976563-.21875-1.460938-.101562-.476562-.21875-.957031-.359375-1.417969-.140625-.46875-.3125-.929687-.5-1.390625-.179687-.449218-.390625-.890625-.621093-1.320312-.230469-.429688-.480469-.859375-.75-1.257813-.28125-.410156-.570313-.8125-.878907-1.191406-.3125-.378906-.640625-.75-.992187-1.089844-.347656-.351562-.707032-.679687-1.089844-1-.378906-.300781-.777344-.601562-1.1875-.867187-.402344-.273438-.832031-.523438-1.261719-.75-.429687-.230469-.878906-.441406-1.328125-.632813-.449218-.179687-.910156-.351562-1.382812-.488281-.46875-.148438-.949219-.269531-1.417969-.359375-.480469-.101563-.96875-.171875-1.460937-.222656-.980469-.097657-1.96875-.097657-2.949219 0-.488281.050781-.980469.121093-1.460938.222656-.46875.089844-.949219.210937-1.417969.359375-.472656.140625-.929687.308594-1.378906.488281-.453125.191407-.902344.398438-1.332031.632813-.429687.226562-.859375.476562-1.261719.75-.40625.269531-.808594.566406-1.1875.867187-.378906.320313-.75.648438-1.089844 1-.351562.339844-.679687.710938-.992187 1.089844-.308594.382813-.609375.78125-.878906 1.191406-.269531.398438-.519531.828125-.75 1.257813-.230469.433594-.4375.871094-.628907 1.320312-.179687.460938-.351562.921875-.492187 1.390625-.148437.460938-.269531.941407-.359375 1.417969-.097656.480469-.167969.972656-.21875 1.460938-.050781.492187-.082031.980468-.082031 1.472656 0 .488281.03125.988281.082031 1.476562.050781.480469.121094.972656.21875 1.453125zm0 0"/><path d="m49.191406 59.207031c.089844.476563.210938.957031.359375 1.429688.140625.457031.308594.929687.488281 1.378906.191407.449219.402344.898437.632813 1.328125.230469.433594.480469.851562.75 1.261719.269531.410156.570313.8125.878906 1.179687.308594.382813.640625.75.988281 1.101563.339844.339843.710938.679687 1.089844.988281.382813.3125.78125.601562 1.191406.871094.398438.269531.832032.53125 1.261719.761718.429688.226563.878907.4375 1.328125.617188.449219.191406.910156.359375 1.378906.5.472657.140625.953126.261719 1.421876.359375.480468.101563.96875.171875 1.460937.222656.488281.046875.976563.070313 1.46875.070313.488281 0 .988281-.023438 1.480469-.070313.480468-.050781.96875-.121093 1.457031-.222656.472656-.097656.953125-.21875 1.421875-.359375s.929688-.308594 1.378906-.5c.449219-.179688.902344-.390625 1.332032-.617188.429687-.230468.847656-.492187 1.257812-.761718.410156-.269532.8125-.558594 1.179688-.871094.390624-.308594.75-.648438 1.101562-.988281.351562-.351563.679688-.71875.988281-1.101563.3125-.367187.601563-.769531.871094-1.179687.269531-.410157.53125-.828125.761719-1.261719.226562-.429688.4375-.878906.617187-1.328125.191407-.449219.359375-.921875.5-1.378906.140625-.472657.261719-.949219.359375-1.429688.101563-.480469.171875-.972656.222656-1.453125.050782-.488281.070313-.988281.070313-1.476562 0-.492188-.019531-.980469-.070313-1.472656-.050781-.488282-.121093-.976563-.222656-1.460938-.097656-.476562-.21875-.957031-.359375-1.417969-.140625-.46875-.308593-.929687-.5-1.390625-.179687-.449218-.390625-.890625-.617187-1.320312-.230469-.429688-.492188-.859375-.761719-1.257813-.269531-.410156-.558594-.8125-.871094-1.191406-.308593-.378906-.636719-.75-.988281-1.089844-.351562-.351562-.710938-.679687-1.101562-1-.367188-.300781-.769532-.601562-1.179688-.867187-.410156-.273438-.828125-.523438-1.257812-.75-.429688-.230469-.882813-.441406-1.332032-.632813-.449218-.179687-.910156-.351562-1.378906-.488281-.46875-.148438-.949219-.269531-1.421875-.359375-.488281-.101563-.976563-.171875-1.457031-.222656-.980469-.097657-1.972656-.097657-2.949219 0-.492187.050781-.980469.121093-1.460937.222656-.46875.089844-.949219.210937-1.421876.359375-.46875.140625-.929687.308594-1.378906.488281-.449218.191407-.898437.398438-1.328125.632813-.429687.226562-.863281.476562-1.261719.75-.410156.269531-.808593.566406-1.191406.867187-.378906.320313-.75.648438-1.089844 1-.347656.339844-.679687.710938-.988281 1.089844-.308593.382813-.609375.78125-.878906 1.191406-.269531.398438-.519531.828125-.75 1.257813-.230469.433594-.441406.871094-.632813 1.320312-.179687.460938-.347656.921875-.488281 1.390625-.148437.460938-.269531.941407-.359375 1.417969-.101562.480469-.171875.972656-.21875 1.460938-.050781.492187-.082031.980468-.082031 1.472656 0 .488281.03125.988281.082031 1.476562.046875.480469.117188.972656.21875 1.453125zm0 0"/><path d="m146.1875 59.207031c.089844.476563.21875.957031.359375 1.429688.140625.457031.308594.929687.488281 1.378906.191406.449219.402344.898437.632813 1.328125.226562.433594.476562.851562.75 1.261719.269531.410156.566406.8125.878906 1.179687.308594.382813.640625.75.988281 1.101563.339844.339843.710938.679687 1.089844.988281.382812.3125.78125.601562 1.191406.871094.398438.269531.828125.53125 1.257813.761718.433593.226563.882812.4375 1.332031.617188.449219.191406.910156.359375 1.378906.5.460938.140625.941406.261719 1.421875.359375.480469.101563.96875.171875 1.457031.222656.492188.046875.980469.070313 1.472657.070313.488281 0 .988281-.023438 1.480469-.070313.476562-.050781.96875-.121093 1.449218-.222656.480469-.097656.960938-.21875 1.429688-.359375.460937-.140625.929687-.308594 1.378906-.5.449219-.179688.902344-.390625 1.332031-.617188.429688-.230468.847657-.492187 1.257813-.761718.410156-.269532.808594-.558594 1.179687-.871094.378907-.308594.75-.648438 1.101563-.988281.347656-.351563.679687-.71875.988281-1.101563.3125-.367187.601563-.769531.878906-1.179687.273438-.410157.523438-.828125.75-1.261719.230469-.429688.441407-.878906.632813-1.328125.179687-.449219.347656-.921875.488281-1.378906.140625-.472657.261719-.949219.359375-1.429688.101562-.480469.171875-.972656.222656-1.453125.046875-.488281.070313-.988281.070313-1.476562 0-.492188-.023438-.980469-.070313-1.472656-.050781-.488282-.121094-.976563-.222656-1.460938-.097656-.476562-.21875-.957031-.359375-1.417969-.140625-.46875-.308594-.929687-.488281-1.390625-.191406-.449218-.402344-.890625-.632813-1.320312-.226562-.429688-.476562-.859375-.75-1.257813-.277343-.410156-.566406-.8125-.878906-1.191406-.308594-.378906-.640625-.75-.988281-1.089844-.351563-.351562-.722656-.679687-1.101563-1-.371093-.300781-.769531-.601562-1.179687-.867187-.410156-.273438-.828125-.523438-1.257813-.75-.429687-.230469-.882812-.441406-1.332031-.632813-.449219-.179687-.917969-.351562-1.378906-.488281-.46875-.148438-.949219-.269531-1.429688-.359375-.480468-.101563-.972656-.171875-1.449218-.222656-.980469-.097657-1.972657-.097657-2.953126 0-.488281.050781-.976562.121093-1.457031.222656-.480469.089844-.960937.210937-1.421875.359375-.46875.140625-.929687.308594-1.378906.488281-.449219.191407-.898438.398438-1.332031.632813-.429688.226562-.859375.476562-1.257813.75-.410156.269531-.808594.566406-1.191406.867187-.378906.320313-.75.648438-1.089844 1-.347656.339844-.679687.710938-.988281 1.089844-.3125.382813-.609375.78125-.878906 1.191406-.273438.398438-.523438.828125-.75 1.257813-.230469.433594-.441407.871094-.632813 1.320312-.179687.460938-.347656.921875-.488281 1.390625-.140625.460938-.269531.941407-.359375 1.417969-.101562.480469-.171875.972656-.222656 1.460938-.046875.492187-.078125.980468-.078125 1.472656 0 .488281.03125.988281.078125 1.476562.050781.480469.121094.972656.222656 1.453125zm0 0"/><path d="m162.804688 157.226562h-79.019532c-9.359375 0-16.972656 7.613282-16.972656 16.976563v79.015625c0 9.359375 7.613281 16.976562 16.972656 16.976562h79.015625c9.363281 0 16.976563-7.613281 16.976563-16.976562v-79.015625c0-9.363281-7.613282-16.976563-16.972656-16.976563zm-13.027344 82.96875h-52.96875v-52.96875h52.96875zm0 0"/><path d="m216.777344 270.191406h79.019531c9.359375 0 16.972656-7.613281 16.972656-16.972656v-79.019531c0-9.359375-7.613281-16.972657-16.972656-16.972657h-79.019531c-9.359375 0-16.972656 7.613282-16.972656 16.972657v79.019531c0 9.359375 7.613281 16.972656 16.972656 16.972656zm13.027344-82.964844h52.96875v52.96875h-52.96875zm0 0"/><path d="m349.195312 270.191406h79.019532c9.359375 0 16.972656-7.613281 16.972656-16.972656v-79.019531c0-9.359375-7.613281-16.972657-16.972656-16.972657h-79.019532c-9.359374 0-16.972656 7.613282-16.972656 16.972657v79.019531c0 9.359375 7.613282 16.972656 16.972656 16.972656zm13.027344-82.964844h52.96875v52.96875h-52.96875zm0 0"/><path d="m164.777344 289.839844h-85.242188c-8.285156 0-15 6.71875-15 15 0 8.285156 6.714844 15 15 15h85.242188c8.285156 0 15-6.714844 15-15 0-8.28125-6.714844-15-15-15zm0 0"/><path d="m164.777344 339.839844h-85.242188c-8.285156 0-15 6.714844-15 15 0 8.28125 6.714844 14.996094 15 14.996094h85.242188c8.285156 0 15-6.714844 15-14.996094 0-8.285156-6.714844-15-15-15zm0 0"/><path d="m298.621094 290.164062h-85.242188c-8.285156 0-15 6.714844-15 15 0 8.285157 6.714844 15 15 15h85.242188c8.285156 0 15-6.714843 15-15 0-8.285156-6.714844-15-15-15zm0 0"/><path d="m298.621094 340.164062h-85.242188c-8.285156 0-15 6.714844-15 14.996094 0 8.285156 6.714844 15 15 15h85.242188c8.285156 0 15-6.714844 15-15 0-8.28125-6.714844-14.996094-15-14.996094zm0 0"/><path d="m431.328125 290.164062h-85.242187c-8.285157 0-15 6.714844-15 15 0 8.285157 6.714843 15 15 15h85.242187c8.28125 0 15-6.714843 15-15 0-8.285156-6.71875-15-15-15zm0 0"/><path d="m431.328125 340.164062h-85.242187c-8.285157 0-15 6.714844-15 14.996094 0 8.285156 6.714843 15 15 15h85.242187c8.28125 0 15-6.714844 15-15 0-8.28125-6.71875-14.996094-15-14.996094zm0 0"/></svg>