<?xml version="1.0" encoding="utf-8"?>
<!-- Generator: Adobe Illustrator 22.1.0, SVG Export Plug-In . SVG Version: 6.00 Build 0)  -->
<svg version="1.1" id="Layer_1" xmlns="http://www.w3.org/2000/svg" xmlns:xlink="http://www.w3.org/1999/xlink" x="0px" y="0px"
	 viewBox="0 0 100 100" style="enable-background:new 0 0 100 100;" xml:space="preserve">
<style type="text/css">
	.st0{fill:#FFFFFF;}
</style>
<circle cx="50" cy="50" r="50"/>
<g>
	<path class="st0" d="M15,55.8c0-8.7,6.3-14.7,14.9-14.7c4.9,0,9,1.9,11.4,5.7l-2.9,2c-2-2.9-5.1-4.3-8.4-4.3c-6.3,0-11,4.5-11,11.3
		c0,6.8,4.6,11.3,11,11.3c3.4,0,6.5-1.3,8.4-4.2l2.9,2c-2.3,3.8-6.5,5.7-11.4,5.7C21.3,70.6,15,64.5,15,55.8z"/>
	<path class="st0" d="M47.4,29.4h3.9v40.9h-3.9V29.4z"/>
	<path class="st0" d="M75.8,41.1v3.8c-0.3,0-0.7-0.1-0.9-0.1c-6.1,0-9.8,3.9-9.8,10.7v14.8h-3.9v-29h3.8V47
		C66.7,43.1,70.4,41.1,75.8,41.1z"/>
	<path class="st0" d="M79.1,67.6c0-1.7,1.3-3,2.9-3c1.6,0,3,1.3,3,3c0,1.7-1.4,3-3,3C80.4,70.6,79.1,69.3,79.1,67.6z"/>
</g>
</svg>
